<svg version="1.2" xmlns="http://www.w3.org/2000/svg" viewBox="0 0 263 101" width="263" height="101"><style>tspan{white-space:pre}.a{fill:#6a7cce}.b{fill:#fff}.c{font-size: 49px;fill: #6a7cce;font-weight: 700;font-family: "SegoeUI-Bold", "Segoe UI"}</style><path fill-rule="evenodd" class="a" d="m66.1 54.1c-1.9 18.9-10.5 33.3-31 23.6-19.8-3.9-15.1-24.2-8.7-35.6 7.4-12.7 22-21.6 30.6-26.2 1-0.5 1.7-0.9 2.4-1.3q0.9-0.4 1.2 0.3c0.4 0.8 0.7 1.6 1 2.5 3.7 10.3 5.7 24.4 4.5 36.7z"/><path fill-rule="evenodd" class="b" d="m46 74c-4.4 0-8-1.9-8-4.2 0-2.4 3.6-4.3 8-4.3 4.4 0 8 1.9 8 4.3 0 2.3-3.6 4.2-8 4.2z"/><text style="transform:matrix(1,0,0,1,75,68)" ><tspan x="0" y="0" class="c">G</tspan><tspan  y="0" class="c">a</tspan><tspan  y="0" class="c">r</tspan><tspan  y="0" class="c">ú</tspan><tspan  y="0" class="c">a
</tspan></text></svg>