<svg version="1.2" xmlns="http://www.w3.org/2000/svg" viewBox="0 0 66 71" width="66" height="71">
	<title>garua-logo</title>
	<style>
		tspan { white-space:pre } 
		.s0 { fill: #6469e3 } 
		.s1 { fill: #ffffff } 
	</style>
	<path fill-rule="evenodd" class="s0" d="m53.1 42.1c-1.9 18.9-10.5 33.3-31 23.6-19.8-3.9-15.1-24.2-8.7-35.6 7.4-12.7 22-21.6 30.6-26.2 1-0.5 1.7-0.9 2.4-1.3q0.9-0.4 1.2 0.3c0.4 0.8 0.7 1.6 1 2.5 3.7 10.3 5.7 24.4 4.5 36.7z"/>
	<path fill-rule="evenodd" class="s1" d="m33 62c-4.4 0-8-1.9-8-4.2 0-2.4 3.6-4.3 8-4.3 4.4 0 8 1.9 8 4.3 0 2.3-3.6 4.2-8 4.2z"/>
	<g>
	</g>
</svg>