<svg version="1.2" xmlns="http://www.w3.org/2000/svg" viewBox="0 0 67 73" width="67" height="73">
	<title>logo-title-alt</title>
	<style>
		tspan { white-space:pre } 
		.s0 { fill: #6a7cce } 
		.s1 { fill: #ffffff } 
		.t2 { font-size: 49px;fill: #6a7cce;font-weight: 700;font-family: "SegoeUI-Bold", "Segoe UI" } 
	</style>
	<path fill-rule="evenodd" class="s0" d="m58.1 43.1c-1.9 18.9-10.5 33.3-31 23.6-19.8-3.9-15.1-24.2-8.7-35.6 7.4-12.7 22-21.6 30.6-26.2 0.9-0.5 1.7-0.9 2.4-1.3 0.6-0.3 1-0.2 1.2 0.3 0.4 0.8 0.7 1.6 1 2.5 3.7 10.3 5.7 24.4 4.5 36.7z"/>
	<path id="Forma 1" fill-rule="evenodd" class="s1" d="m38 63c-4.4 0-8-1.9-8-4.2 0-2.4 3.6-4.3 8-4.3 4.4 0 8 1.9 8 4.3 0 2.3-3.6 4.2-8 4.2z"/>
	<text id="Garua" style="transform: matrix(1,0,0,1,67,56)" >
		<tspan x="0" y="0" class="t2">G</tspan><tspan  y="0" class="t2">a</tspan><tspan  y="0" class="t2">r</tspan><tspan  y="0" class="t2">u</tspan><tspan  y="0" class="t2">a
</tspan>
	</text>
</svg>