<svg version="1.2" xmlns="http://www.w3.org/2000/svg" viewBox="0 0 463 177" width="463" height="177">
	<style>
		.s0 { fill: #6469e3 } 
		.s1 { fill: #ffffff } 
	</style>
	<path id="G " class="s0" aria-label="G
"  d="m220.5 84.7v30.3q-8.9 5-22 5-14.6 0-23-8-8.4-8-8.4-22.1 0-14.2 9.2-23.1 9.2-8.9 24.4-8.9 9.6 0 17 2.6v12.7q-7-4-17.1-4-8.5 0-13.9 5.5-5.3 5.4-5.3 14.6 0 9.2 4.8 14.3 4.8 5.1 12.9 5.1 4.9 0 7.8-1.4v-11.7h-12.1v-10.9z"/>
	<path id="a " class="s0" aria-label="a
"  d="m261.5 93.3v25.7h-12.6v-6.2h-0.2q-4.3 7.2-12.8 7.2-6.3 0-9.9-3.5-3.6-3.5-3.6-9.4 0-12.5 14.9-14.5l11.7-1.5q0-7.1-7.7-7.1-7.7 0-14.6 4.6v-10q2.7-1.4 7.5-2.5 4.9-1.1 8.8-1.1 18.5 0 18.5 18.3zm-12.5 8.3v-2.9l-7.9 1q-6.4 0.8-6.4 5.8 0 2.3 1.5 3.7 1.6 1.5 4.3 1.5 3.8 0 6.1-2.6 2.4-2.6 2.4-6.5z"/>
	<path id="r " class="s0" aria-label="r
"  d="m294.7 75.8v12.2q-2.4-1.3-5.6-1.3-4.3 0-6.7 3.2-2.5 3.1-2.5 8.6v20.5h-13.3v-42.9h13.3v7.9h0.2q3.1-8.7 11.4-8.7 2.1 0 3.2 0.5z"/>
	<path id="ú " class="s0" aria-label="ú
"  d="m338.6 76.1v42.9h-13.3v-6.5h-0.2q-4.9 7.5-13.2 7.5-15 0-15-18v-25.9h13.3v24.7q0 9.1 7.2 9.1 3.6 0 5.8-2.5 2.1-2.5 2.1-6.8v-24.5zm-17.3-20.4h11.9l-13.2 13.6h-9.6z"/>
	<path id="a " class="s0" aria-label="a
"  d="m381.5 93.3v25.7h-12.6v-6.2h-0.2q-4.3 7.2-12.8 7.2-6.3 0-9.9-3.5-3.6-3.5-3.6-9.4 0-12.5 14.9-14.5l11.7-1.5q0-7.1-7.7-7.1-7.7 0-14.6 4.6v-10q2.7-1.4 7.5-2.5 4.9-1.1 8.8-1.1 18.5 0 18.5 18.3zm-12.5 8.3v-2.9l-7.9 1q-6.4 0.8-6.4 5.8 0 2.3 1.5 3.7 1.6 1.5 4.3 1.5 3.8 0 6.1-2.6 2.4-2.6 2.4-6.5z"/>
	<path fill-rule="evenodd" class="s0" d="m148.05 94.81c-3.34 33.12-18.48 58.36-54.57 41.36-34.86-6.84-26.58-42.41-15.32-62.39 13.03-22.26 38.73-37.85 53.87-45.92 1.76-0.87 3-1.57 4.23-2.27q1.58-0.7 2.11 0.52c0.71 1.4 1.23 2.81 1.76 4.38 6.52 18.05 10.04 42.76 7.92 64.32z"/>
	<path fill-rule="evenodd" class="s1" d="m112.67 129.68c-7.79 0-14.08-3.33-14.08-7.44 0-4.12 6.29-7.45 14.08-7.45 7.79 0 14.08 3.33 14.08 7.45 0 4.11-6.29 7.44-14.08 7.44z"/>
</svg>