<svg version="1.2" xmlns="http://www.w3.org/2000/svg" viewBox="0 0 150 150" width="150" height="150">
	<style>
		.s0 { fill: #6469e3 } 
		.s1 { fill: #ffffff } 
	</style>
	<g>
		<path fill-rule="evenodd" class="s0" d="m120.46 88.24c-4.02 39.94-22.19 70.37-65.51 49.87-41.85-8.24-31.91-51.14-18.39-75.23 15.64-26.84 46.49-45.65 64.67-55.37 2.11-1.06 3.59-1.9 5.07-2.75q1.9-0.84 2.54 0.64c0.84 1.69 1.48 3.38 2.11 5.28 7.82 21.77 12.05 51.56 9.51 77.56z"/>
		<path fill-rule="evenodd" class="s1" d="m77.98 130.29c-9.35 0-16.9-4.01-16.9-8.98 0-4.97 7.55-8.98 16.9-8.98 9.35 0 16.91 4.01 16.91 8.98 0 4.97-7.56 8.98-16.91 8.98z"/>
	</g>
</svg>